<svg xmlns="http://www.w3.org/2000/svg" width="1800" height="1260" viewBox="0 0 1800 1260">
<rect width="100%" height="100%" fill="#f6f1e6"/>
<text x="70" y="78" font-family="Helvetica, Arial, sans-serif" font-size="46" font-weight="700" fill="#23313f">Autom8er VacuFarm Layout Options</text>
<text x="70" y="114" font-family="Helvetica, Arial, sans-serif" font-size="21" fill="#667685">Tank-centered, symmetric field plans tuned for the current Green Crate farmer footprint: 21×21 farm actions, 25×25 vacuum pickup.</text>
<rect x="1260" y="70" width="460" height="190" rx="24" fill="#fffdfa" stroke="#e2dacd" stroke-width="2"/>
<text x="1284" y="104" font-family="Helvetica, Arial, sans-serif" font-size="24" font-weight="700" fill="#23313f">Legend</text>
<circle cx="1294" cy="128" r="10" fill="#2f6bdf"/>
<text x="1318" y="132" font-family="Helvetica, Arial, sans-serif" font-size="16" font-weight="700" fill="#23313f">Blue circle</text>
<text x="1450" y="132" font-family="Helvetica, Arial, sans-serif" font-size="15" fill="#667685">Water Tank buried below center level. Keeps tractor lanes clear.</text>
<rect x="1284" y="148" width="20" height="20" rx="4" fill="#2d8f5a"/>
<text x="1318" y="162" font-family="Helvetica, Arial, sans-serif" font-size="16" font-weight="700" fill="#23313f">Green crate (G)</text>
<text x="1450" y="162" font-family="Helvetica, Arial, sans-serif" font-size="15" fill="#667685">VacuFarm chest. Needs hoe + seeds/fertilizer stored locally.</text>
<rect x="1284" y="178" width="20" height="20" rx="4" fill="#1d1d1d"/>
<text x="1318" y="192" font-family="Helvetica, Arial, sans-serif" font-size="16" font-weight="700" fill="#23313f">Black crate (F)</text>
<text x="1450" y="192" font-family="Helvetica, Arial, sans-serif" font-size="15" fill="#667685">Filter head feeding seeds/fertilizer into the farmer.</text>
<rect x="1284" y="208" width="20" height="20" rx="4" fill="#223045"/>
<text x="1318" y="222" font-family="Helvetica, Arial, sans-serif" font-size="16" font-weight="700" fill="#23313f">Dark path</text>
<text x="1450" y="222" font-family="Helvetica, Arial, sans-serif" font-size="15" fill="#667685">Recommended conveyor trunk. Keep at least one output side touching each farmer.</text>
<rect x="70" y="180" width="520" height="520" rx="28" fill="#fffdfa" stroke="#e2dacd" stroke-width="2"/>
<text x="106" y="222" font-family="Helvetica, Arial, sans-serif" font-size="26" font-weight="700" fill="#23313f">Option A: Single Core</text>
<text x="106" y="246" font-family="Helvetica, Arial, sans-serif" font-size="15" fill="#667685">Most minimal layout. Highest simplicity, lowest farmer count, most unused irrigated border.</text>
<rect x="106" y="270" width="350" height="350" rx="10" fill="#dceecf" stroke="#bdd9ad" stroke-width="2"/>
<line x1="120" y1="270" x2="120" y2="620" stroke="#c6dfb7" stroke-width="1"/>
<line x1="106" y1="284" x2="456" y2="284" stroke="#c6dfb7" stroke-width="1"/>
<line x1="134" y1="270" x2="134" y2="620" stroke="#c6dfb7" stroke-width="1"/>
<line x1="106" y1="298" x2="456" y2="298" stroke="#c6dfb7" stroke-width="1"/>
<line x1="148" y1="270" x2="148" y2="620" stroke="#c6dfb7" stroke-width="1"/>
<line x1="106" y1="312" x2="456" y2="312" stroke="#c6dfb7" stroke-width="1"/>
<line x1="162" y1="270" x2="162" y2="620" stroke="#c6dfb7" stroke-width="1"/>
<line x1="106" y1="326" x2="456" y2="326" stroke="#c6dfb7" stroke-width="1"/>
<line x1="176" y1="270" x2="176" y2="620" stroke="#c6dfb7" stroke-width="1"/>
<line x1="106" y1="340" x2="456" y2="340" stroke="#c6dfb7" stroke-width="1"/>
<line x1="190" y1="270" x2="190" y2="620" stroke="#c6dfb7" stroke-width="1"/>
<line x1="106" y1="354" x2="456" y2="354" stroke="#c6dfb7" stroke-width="1"/>
<line x1="204" y1="270" x2="204" y2="620" stroke="#c6dfb7" stroke-width="1"/>
<line x1="106" y1="368" x2="456" y2="368" stroke="#c6dfb7" stroke-width="1"/>
<line x1="218" y1="270" x2="218" y2="620" stroke="#c6dfb7" stroke-width="1"/>
<line x1="106" y1="382" x2="456" y2="382" stroke="#c6dfb7" stroke-width="1"/>
<line x1="232" y1="270" x2="232" y2="620" stroke="#c6dfb7" stroke-width="1"/>
<line x1="106" y1="396" x2="456" y2="396" stroke="#c6dfb7" stroke-width="1"/>
<line x1="246" y1="270" x2="246" y2="620" stroke="#c6dfb7" stroke-width="1"/>
<line x1="106" y1="410" x2="456" y2="410" stroke="#c6dfb7" stroke-width="1"/>
<line x1="260" y1="270" x2="260" y2="620" stroke="#c6dfb7" stroke-width="1"/>
<line x1="106" y1="424" x2="456" y2="424" stroke="#c6dfb7" stroke-width="1"/>
<line x1="274" y1="270" x2="274" y2="620" stroke="#c6dfb7" stroke-width="1"/>
<line x1="106" y1="438" x2="456" y2="438" stroke="#c6dfb7" stroke-width="1"/>
<line x1="288" y1="270" x2="288" y2="620" stroke="#c6dfb7" stroke-width="1"/>
<line x1="106" y1="452" x2="456" y2="452" stroke="#c6dfb7" stroke-width="1"/>
<line x1="302" y1="270" x2="302" y2="620" stroke="#c6dfb7" stroke-width="1"/>
<line x1="106" y1="466" x2="456" y2="466" stroke="#c6dfb7" stroke-width="1"/>
<line x1="316" y1="270" x2="316" y2="620" stroke="#c6dfb7" stroke-width="1"/>
<line x1="106" y1="480" x2="456" y2="480" stroke="#c6dfb7" stroke-width="1"/>
<line x1="330" y1="270" x2="330" y2="620" stroke="#c6dfb7" stroke-width="1"/>
<line x1="106" y1="494" x2="456" y2="494" stroke="#c6dfb7" stroke-width="1"/>
<line x1="344" y1="270" x2="344" y2="620" stroke="#c6dfb7" stroke-width="1"/>
<line x1="106" y1="508" x2="456" y2="508" stroke="#c6dfb7" stroke-width="1"/>
<line x1="358" y1="270" x2="358" y2="620" stroke="#c6dfb7" stroke-width="1"/>
<line x1="106" y1="522" x2="456" y2="522" stroke="#c6dfb7" stroke-width="1"/>
<line x1="372" y1="270" x2="372" y2="620" stroke="#c6dfb7" stroke-width="1"/>
<line x1="106" y1="536" x2="456" y2="536" stroke="#c6dfb7" stroke-width="1"/>
<line x1="386" y1="270" x2="386" y2="620" stroke="#c6dfb7" stroke-width="1"/>
<line x1="106" y1="550" x2="456" y2="550" stroke="#c6dfb7" stroke-width="1"/>
<line x1="400" y1="270" x2="400" y2="620" stroke="#c6dfb7" stroke-width="1"/>
<line x1="106" y1="564" x2="456" y2="564" stroke="#c6dfb7" stroke-width="1"/>
<line x1="414" y1="270" x2="414" y2="620" stroke="#c6dfb7" stroke-width="1"/>
<line x1="106" y1="578" x2="456" y2="578" stroke="#c6dfb7" stroke-width="1"/>
<line x1="428" y1="270" x2="428" y2="620" stroke="#c6dfb7" stroke-width="1"/>
<line x1="106" y1="592" x2="456" y2="592" stroke="#c6dfb7" stroke-width="1"/>
<line x1="442" y1="270" x2="442" y2="620" stroke="#c6dfb7" stroke-width="1"/>
<line x1="106" y1="606" x2="456" y2="606" stroke="#c6dfb7" stroke-width="1"/>
<rect x="134" y="298" width="294" height="294" fill="none" stroke="#84c69b" stroke-width="3" stroke-dasharray="9 7" rx="8"/>
<circle cx="281.0" cy="445.0" r="11" fill="#2f6bdf"/>
<circle cx="281.0" cy="445.0" r="22" fill="none" stroke="#2f6bdf" stroke-opacity="0.18" stroke-width="8"/>
<rect x="275" y="453" width="12" height="12" rx="2" fill="#223045"/>
<rect x="275" y="467" width="12" height="12" rx="2" fill="#223045"/>
<rect x="275" y="481" width="12" height="12" rx="2" fill="#223045"/>
<rect x="275" y="495" width="12" height="12" rx="2" fill="#223045"/>
<rect x="275" y="509" width="12" height="12" rx="2" fill="#223045"/>
<rect x="275" y="523" width="12" height="12" rx="2" fill="#223045"/>
<rect x="275" y="537" width="12" height="12" rx="2" fill="#223045"/>
<rect x="275" y="551" width="12" height="12" rx="2" fill="#223045"/>
<rect x="275" y="565" width="12" height="12" rx="2" fill="#223045"/>
<rect x="275" y="579" width="12" height="12" rx="2" fill="#223045"/>
<rect x="275" y="593" width="12" height="12" rx="2" fill="#223045"/>
<rect x="275" y="607" width="12" height="12" rx="2" fill="#223045"/>
<rect x="274" y="424" width="14" height="14" rx="3" fill="#1d1d1d" fill-opacity="1" stroke="#ffffff" stroke-width="2"/><text x="281.0" y="435.0" text-anchor="middle" font-family="Helvetica, Arial, sans-serif" font-size="10" font-weight="700" fill="#ffffff">F</text>
<rect x="274" y="438" width="14" height="14" rx="3" fill="#2d8f5a" fill-opacity="1" stroke="#ffffff" stroke-width="2"/><text x="281.0" y="449.0" text-anchor="middle" font-family="Helvetica, Arial, sans-serif" font-size="10" font-weight="700" fill="#ffffff">G</text>
<text x="281.0" y="654" text-anchor="middle" font-family="Helvetica, Arial, sans-serif" font-size="14" fill="#667685">Use when you want one simple centered VacuFarm core inside a 25×25 irrigated square.</text>
<rect x="640" y="180" width="520" height="520" rx="28" fill="#fffdfa" stroke="#e2dacd" stroke-width="2"/>
<text x="676" y="222" font-family="Helvetica, Arial, sans-serif" font-size="26" font-weight="700" fill="#23313f">Option B: Mirrored Pair</text>
<text x="676" y="246" font-family="Helvetica, Arial, sans-serif" font-size="15" fill="#667685">Best 2-farmer compromise for a square field. Symmetric around the buried tank center.</text>
<rect x="676" y="270" width="350" height="350" rx="10" fill="#dceecf" stroke="#bdd9ad" stroke-width="2"/>
<line x1="690" y1="270" x2="690" y2="620" stroke="#c6dfb7" stroke-width="1"/>
<line x1="676" y1="284" x2="1026" y2="284" stroke="#c6dfb7" stroke-width="1"/>
<line x1="704" y1="270" x2="704" y2="620" stroke="#c6dfb7" stroke-width="1"/>
<line x1="676" y1="298" x2="1026" y2="298" stroke="#c6dfb7" stroke-width="1"/>
<line x1="718" y1="270" x2="718" y2="620" stroke="#c6dfb7" stroke-width="1"/>
<line x1="676" y1="312" x2="1026" y2="312" stroke="#c6dfb7" stroke-width="1"/>
<line x1="732" y1="270" x2="732" y2="620" stroke="#c6dfb7" stroke-width="1"/>
<line x1="676" y1="326" x2="1026" y2="326" stroke="#c6dfb7" stroke-width="1"/>
<line x1="746" y1="270" x2="746" y2="620" stroke="#c6dfb7" stroke-width="1"/>
<line x1="676" y1="340" x2="1026" y2="340" stroke="#c6dfb7" stroke-width="1"/>
<line x1="760" y1="270" x2="760" y2="620" stroke="#c6dfb7" stroke-width="1"/>
<line x1="676" y1="354" x2="1026" y2="354" stroke="#c6dfb7" stroke-width="1"/>
<line x1="774" y1="270" x2="774" y2="620" stroke="#c6dfb7" stroke-width="1"/>
<line x1="676" y1="368" x2="1026" y2="368" stroke="#c6dfb7" stroke-width="1"/>
<line x1="788" y1="270" x2="788" y2="620" stroke="#c6dfb7" stroke-width="1"/>
<line x1="676" y1="382" x2="1026" y2="382" stroke="#c6dfb7" stroke-width="1"/>
<line x1="802" y1="270" x2="802" y2="620" stroke="#c6dfb7" stroke-width="1"/>
<line x1="676" y1="396" x2="1026" y2="396" stroke="#c6dfb7" stroke-width="1"/>
<line x1="816" y1="270" x2="816" y2="620" stroke="#c6dfb7" stroke-width="1"/>
<line x1="676" y1="410" x2="1026" y2="410" stroke="#c6dfb7" stroke-width="1"/>
<line x1="830" y1="270" x2="830" y2="620" stroke="#c6dfb7" stroke-width="1"/>
<line x1="676" y1="424" x2="1026" y2="424" stroke="#c6dfb7" stroke-width="1"/>
<line x1="844" y1="270" x2="844" y2="620" stroke="#c6dfb7" stroke-width="1"/>
<line x1="676" y1="438" x2="1026" y2="438" stroke="#c6dfb7" stroke-width="1"/>
<line x1="858" y1="270" x2="858" y2="620" stroke="#c6dfb7" stroke-width="1"/>
<line x1="676" y1="452" x2="1026" y2="452" stroke="#c6dfb7" stroke-width="1"/>
<line x1="872" y1="270" x2="872" y2="620" stroke="#c6dfb7" stroke-width="1"/>
<line x1="676" y1="466" x2="1026" y2="466" stroke="#c6dfb7" stroke-width="1"/>
<line x1="886" y1="270" x2="886" y2="620" stroke="#c6dfb7" stroke-width="1"/>
<line x1="676" y1="480" x2="1026" y2="480" stroke="#c6dfb7" stroke-width="1"/>
<line x1="900" y1="270" x2="900" y2="620" stroke="#c6dfb7" stroke-width="1"/>
<line x1="676" y1="494" x2="1026" y2="494" stroke="#c6dfb7" stroke-width="1"/>
<line x1="914" y1="270" x2="914" y2="620" stroke="#c6dfb7" stroke-width="1"/>
<line x1="676" y1="508" x2="1026" y2="508" stroke="#c6dfb7" stroke-width="1"/>
<line x1="928" y1="270" x2="928" y2="620" stroke="#c6dfb7" stroke-width="1"/>
<line x1="676" y1="522" x2="1026" y2="522" stroke="#c6dfb7" stroke-width="1"/>
<line x1="942" y1="270" x2="942" y2="620" stroke="#c6dfb7" stroke-width="1"/>
<line x1="676" y1="536" x2="1026" y2="536" stroke="#c6dfb7" stroke-width="1"/>
<line x1="956" y1="270" x2="956" y2="620" stroke="#c6dfb7" stroke-width="1"/>
<line x1="676" y1="550" x2="1026" y2="550" stroke="#c6dfb7" stroke-width="1"/>
<line x1="970" y1="270" x2="970" y2="620" stroke="#c6dfb7" stroke-width="1"/>
<line x1="676" y1="564" x2="1026" y2="564" stroke="#c6dfb7" stroke-width="1"/>
<line x1="984" y1="270" x2="984" y2="620" stroke="#c6dfb7" stroke-width="1"/>
<line x1="676" y1="578" x2="1026" y2="578" stroke="#c6dfb7" stroke-width="1"/>
<line x1="998" y1="270" x2="998" y2="620" stroke="#c6dfb7" stroke-width="1"/>
<line x1="676" y1="592" x2="1026" y2="592" stroke="#c6dfb7" stroke-width="1"/>
<line x1="1012" y1="270" x2="1012" y2="620" stroke="#c6dfb7" stroke-width="1"/>
<line x1="676" y1="606" x2="1026" y2="606" stroke="#c6dfb7" stroke-width="1"/>
<rect x="704" y="298" width="294" height="294" fill="none" stroke="#84c69b" stroke-width="3" stroke-dasharray="9 7" rx="8"/>
<circle cx="851.0" cy="445.0" r="11" fill="#2f6bdf"/>
<circle cx="851.0" cy="445.0" r="22" fill="none" stroke="#2f6bdf" stroke-opacity="0.18" stroke-width="8"/>
<rect x="845" y="565" width="12" height="12" rx="2" fill="#223045"/>
<rect x="845" y="579" width="12" height="12" rx="2" fill="#223045"/>
<rect x="845" y="593" width="12" height="12" rx="2" fill="#223045"/>
<rect x="845" y="607" width="12" height="12" rx="2" fill="#223045"/>
<rect x="789" y="453" width="12" height="12" rx="2" fill="#223045"/>
<rect x="789" y="467" width="12" height="12" rx="2" fill="#223045"/>
<rect x="789" y="481" width="12" height="12" rx="2" fill="#223045"/>
<rect x="789" y="495" width="12" height="12" rx="2" fill="#223045"/>
<rect x="789" y="509" width="12" height="12" rx="2" fill="#223045"/>
<rect x="789" y="523" width="12" height="12" rx="2" fill="#223045"/>
<rect x="789" y="537" width="12" height="12" rx="2" fill="#223045"/>
<rect x="789" y="551" width="12" height="12" rx="2" fill="#223045"/>
<rect x="789" y="565" width="12" height="12" rx="2" fill="#223045"/>
<rect x="803" y="565" width="12" height="12" rx="2" fill="#223045"/>
<rect x="817" y="565" width="12" height="12" rx="2" fill="#223045"/>
<rect x="831" y="565" width="12" height="12" rx="2" fill="#223045"/>
<rect x="845" y="565" width="12" height="12" rx="2" fill="#223045"/>
<rect x="788" y="424" width="14" height="14" rx="3" fill="#1d1d1d" fill-opacity="1" stroke="#ffffff" stroke-width="2"/><text x="795.0" y="435.0" text-anchor="middle" font-family="Helvetica, Arial, sans-serif" font-size="10" font-weight="700" fill="#ffffff">F</text>
<rect x="788" y="438" width="14" height="14" rx="3" fill="#2d8f5a" fill-opacity="1" stroke="#ffffff" stroke-width="2"/><text x="795.0" y="449.0" text-anchor="middle" font-family="Helvetica, Arial, sans-serif" font-size="10" font-weight="700" fill="#ffffff">G</text>
<rect x="901" y="453" width="12" height="12" rx="2" fill="#223045"/>
<rect x="901" y="467" width="12" height="12" rx="2" fill="#223045"/>
<rect x="901" y="481" width="12" height="12" rx="2" fill="#223045"/>
<rect x="901" y="495" width="12" height="12" rx="2" fill="#223045"/>
<rect x="901" y="509" width="12" height="12" rx="2" fill="#223045"/>
<rect x="901" y="523" width="12" height="12" rx="2" fill="#223045"/>
<rect x="901" y="537" width="12" height="12" rx="2" fill="#223045"/>
<rect x="901" y="551" width="12" height="12" rx="2" fill="#223045"/>
<rect x="901" y="565" width="12" height="12" rx="2" fill="#223045"/>
<rect x="887" y="565" width="12" height="12" rx="2" fill="#223045"/>
<rect x="873" y="565" width="12" height="12" rx="2" fill="#223045"/>
<rect x="859" y="565" width="12" height="12" rx="2" fill="#223045"/>
<rect x="845" y="565" width="12" height="12" rx="2" fill="#223045"/>
<rect x="900" y="424" width="14" height="14" rx="3" fill="#1d1d1d" fill-opacity="1" stroke="#ffffff" stroke-width="2"/><text x="907.0" y="435.0" text-anchor="middle" font-family="Helvetica, Arial, sans-serif" font-size="10" font-weight="700" fill="#ffffff">F</text>
<rect x="900" y="438" width="14" height="14" rx="3" fill="#2d8f5a" fill-opacity="1" stroke="#ffffff" stroke-width="2"/><text x="907.0" y="449.0" text-anchor="middle" font-family="Helvetica, Arial, sans-serif" font-size="10" font-weight="700" fill="#ffffff">G</text>
<text x="851.0" y="654" text-anchor="middle" font-family="Helvetica, Arial, sans-serif" font-size="14" fill="#667685">Best balanced 2-farmer option: mirrored pair with one shared south trunk.</text>
<rect x="1210" y="180" width="520" height="520" rx="28" fill="#fffdfa" stroke="#e2dacd" stroke-width="2"/>
<text x="1246" y="222" font-family="Helvetica, Arial, sans-serif" font-size="26" font-weight="700" fill="#23313f">Option C: Quadrant Cross</text>
<text x="1246" y="246" font-family="Helvetica, Arial, sans-serif" font-size="15" fill="#667685">Recommended for the wiki-style cross field. Each quadrant gets one farmer placed 1 tile inward.</text>
<rect x="1246" y="270" width="350" height="350" rx="10" fill="#dceecf" stroke="#bdd9ad" stroke-width="2"/>
<line x1="1260" y1="270" x2="1260" y2="620" stroke="#c6dfb7" stroke-width="1"/>
<line x1="1246" y1="284" x2="1596" y2="284" stroke="#c6dfb7" stroke-width="1"/>
<line x1="1274" y1="270" x2="1274" y2="620" stroke="#c6dfb7" stroke-width="1"/>
<line x1="1246" y1="298" x2="1596" y2="298" stroke="#c6dfb7" stroke-width="1"/>
<line x1="1288" y1="270" x2="1288" y2="620" stroke="#c6dfb7" stroke-width="1"/>
<line x1="1246" y1="312" x2="1596" y2="312" stroke="#c6dfb7" stroke-width="1"/>
<line x1="1302" y1="270" x2="1302" y2="620" stroke="#c6dfb7" stroke-width="1"/>
<line x1="1246" y1="326" x2="1596" y2="326" stroke="#c6dfb7" stroke-width="1"/>
<line x1="1316" y1="270" x2="1316" y2="620" stroke="#c6dfb7" stroke-width="1"/>
<line x1="1246" y1="340" x2="1596" y2="340" stroke="#c6dfb7" stroke-width="1"/>
<line x1="1330" y1="270" x2="1330" y2="620" stroke="#c6dfb7" stroke-width="1"/>
<line x1="1246" y1="354" x2="1596" y2="354" stroke="#c6dfb7" stroke-width="1"/>
<line x1="1344" y1="270" x2="1344" y2="620" stroke="#c6dfb7" stroke-width="1"/>
<line x1="1246" y1="368" x2="1596" y2="368" stroke="#c6dfb7" stroke-width="1"/>
<line x1="1358" y1="270" x2="1358" y2="620" stroke="#c6dfb7" stroke-width="1"/>
<line x1="1246" y1="382" x2="1596" y2="382" stroke="#c6dfb7" stroke-width="1"/>
<line x1="1372" y1="270" x2="1372" y2="620" stroke="#c6dfb7" stroke-width="1"/>
<line x1="1246" y1="396" x2="1596" y2="396" stroke="#c6dfb7" stroke-width="1"/>
<line x1="1386" y1="270" x2="1386" y2="620" stroke="#c6dfb7" stroke-width="1"/>
<line x1="1246" y1="410" x2="1596" y2="410" stroke="#c6dfb7" stroke-width="1"/>
<line x1="1400" y1="270" x2="1400" y2="620" stroke="#c6dfb7" stroke-width="1"/>
<line x1="1246" y1="424" x2="1596" y2="424" stroke="#c6dfb7" stroke-width="1"/>
<line x1="1414" y1="270" x2="1414" y2="620" stroke="#c6dfb7" stroke-width="1"/>
<line x1="1246" y1="438" x2="1596" y2="438" stroke="#c6dfb7" stroke-width="1"/>
<line x1="1428" y1="270" x2="1428" y2="620" stroke="#c6dfb7" stroke-width="1"/>
<line x1="1246" y1="452" x2="1596" y2="452" stroke="#c6dfb7" stroke-width="1"/>
<line x1="1442" y1="270" x2="1442" y2="620" stroke="#c6dfb7" stroke-width="1"/>
<line x1="1246" y1="466" x2="1596" y2="466" stroke="#c6dfb7" stroke-width="1"/>
<line x1="1456" y1="270" x2="1456" y2="620" stroke="#c6dfb7" stroke-width="1"/>
<line x1="1246" y1="480" x2="1596" y2="480" stroke="#c6dfb7" stroke-width="1"/>
<line x1="1470" y1="270" x2="1470" y2="620" stroke="#c6dfb7" stroke-width="1"/>
<line x1="1246" y1="494" x2="1596" y2="494" stroke="#c6dfb7" stroke-width="1"/>
<line x1="1484" y1="270" x2="1484" y2="620" stroke="#c6dfb7" stroke-width="1"/>
<line x1="1246" y1="508" x2="1596" y2="508" stroke="#c6dfb7" stroke-width="1"/>
<line x1="1498" y1="270" x2="1498" y2="620" stroke="#c6dfb7" stroke-width="1"/>
<line x1="1246" y1="522" x2="1596" y2="522" stroke="#c6dfb7" stroke-width="1"/>
<line x1="1512" y1="270" x2="1512" y2="620" stroke="#c6dfb7" stroke-width="1"/>
<line x1="1246" y1="536" x2="1596" y2="536" stroke="#c6dfb7" stroke-width="1"/>
<line x1="1526" y1="270" x2="1526" y2="620" stroke="#c6dfb7" stroke-width="1"/>
<line x1="1246" y1="550" x2="1596" y2="550" stroke="#c6dfb7" stroke-width="1"/>
<line x1="1540" y1="270" x2="1540" y2="620" stroke="#c6dfb7" stroke-width="1"/>
<line x1="1246" y1="564" x2="1596" y2="564" stroke="#c6dfb7" stroke-width="1"/>
<line x1="1554" y1="270" x2="1554" y2="620" stroke="#c6dfb7" stroke-width="1"/>
<line x1="1246" y1="578" x2="1596" y2="578" stroke="#c6dfb7" stroke-width="1"/>
<line x1="1568" y1="270" x2="1568" y2="620" stroke="#c6dfb7" stroke-width="1"/>
<line x1="1246" y1="592" x2="1596" y2="592" stroke="#c6dfb7" stroke-width="1"/>
<line x1="1582" y1="270" x2="1582" y2="620" stroke="#c6dfb7" stroke-width="1"/>
<line x1="1246" y1="606" x2="1596" y2="606" stroke="#c6dfb7" stroke-width="1"/>
<rect x="1274" y="298" width="294" height="294" fill="none" stroke="#84c69b" stroke-width="3" stroke-dasharray="9 7" rx="8"/>
<circle cx="1421.0" cy="445.0" r="11" fill="#2f6bdf"/>
<circle cx="1421.0" cy="445.0" r="22" fill="none" stroke="#2f6bdf" stroke-opacity="0.18" stroke-width="8"/>
<rect x="1414.5" y="326.5" width="13" height="13" rx="2" fill="#fbf7f0" stroke="#efe8d7" stroke-width="1"/>
<rect x="1484.5" y="438.5" width="13" height="13" rx="2" fill="#fbf7f0" stroke="#efe8d7" stroke-width="1"/>
<rect x="1400.5" y="340.5" width="13" height="13" rx="2" fill="#fbf7f0" stroke="#efe8d7" stroke-width="1"/>
<rect x="1400.5" y="466.5" width="13" height="13" rx="2" fill="#fbf7f0" stroke="#efe8d7" stroke-width="1"/>
<rect x="1274.5" y="424.5" width="13" height="13" rx="2" fill="#fbf7f0" stroke="#efe8d7" stroke-width="1"/>
<rect x="1400.5" y="592.5" width="13" height="13" rx="2" fill="#fbf7f0" stroke="#efe8d7" stroke-width="1"/>
<rect x="1330.5" y="424.5" width="13" height="13" rx="2" fill="#fbf7f0" stroke="#efe8d7" stroke-width="1"/>
<rect x="1414.5" y="522.5" width="13" height="13" rx="2" fill="#fbf7f0" stroke="#efe8d7" stroke-width="1"/>
<rect x="1316.5" y="438.5" width="13" height="13" rx="2" fill="#fbf7f0" stroke="#efe8d7" stroke-width="1"/>
<rect x="1358.5" y="424.5" width="13" height="13" rx="2" fill="#fbf7f0" stroke="#efe8d7" stroke-width="1"/>
<rect x="1512.5" y="424.5" width="13" height="13" rx="2" fill="#fbf7f0" stroke="#efe8d7" stroke-width="1"/>
<rect x="1400.5" y="368.5" width="13" height="13" rx="2" fill="#fbf7f0" stroke="#efe8d7" stroke-width="1"/>
<rect x="1400.5" y="494.5" width="13" height="13" rx="2" fill="#fbf7f0" stroke="#efe8d7" stroke-width="1"/>
<rect x="1344.5" y="438.5" width="13" height="13" rx="2" fill="#fbf7f0" stroke="#efe8d7" stroke-width="1"/>
<rect x="1498.5" y="438.5" width="13" height="13" rx="2" fill="#fbf7f0" stroke="#efe8d7" stroke-width="1"/>
<rect x="1554.5" y="438.5" width="13" height="13" rx="2" fill="#fbf7f0" stroke="#efe8d7" stroke-width="1"/>
<rect x="1414.5" y="550.5" width="13" height="13" rx="2" fill="#fbf7f0" stroke="#efe8d7" stroke-width="1"/>
<rect x="1400.5" y="270.5" width="13" height="13" rx="2" fill="#fbf7f0" stroke="#efe8d7" stroke-width="1"/>
<rect x="1372.5" y="438.5" width="13" height="13" rx="2" fill="#fbf7f0" stroke="#efe8d7" stroke-width="1"/>
<rect x="1400.5" y="396.5" width="13" height="13" rx="2" fill="#fbf7f0" stroke="#efe8d7" stroke-width="1"/>
<rect x="1428.5" y="438.5" width="13" height="13" rx="2" fill="#fbf7f0" stroke="#efe8d7" stroke-width="1"/>
<rect x="1582.5" y="438.5" width="13" height="13" rx="2" fill="#fbf7f0" stroke="#efe8d7" stroke-width="1"/>
<rect x="1414.5" y="452.5" width="13" height="13" rx="2" fill="#fbf7f0" stroke="#efe8d7" stroke-width="1"/>
<rect x="1414.5" y="578.5" width="13" height="13" rx="2" fill="#fbf7f0" stroke="#efe8d7" stroke-width="1"/>
<rect x="1400.5" y="298.5" width="13" height="13" rx="2" fill="#fbf7f0" stroke="#efe8d7" stroke-width="1"/>
<rect x="1260.5" y="438.5" width="13" height="13" rx="2" fill="#fbf7f0" stroke="#efe8d7" stroke-width="1"/>
<rect x="1456.5" y="424.5" width="13" height="13" rx="2" fill="#fbf7f0" stroke="#efe8d7" stroke-width="1"/>
<rect x="1414.5" y="354.5" width="13" height="13" rx="2" fill="#fbf7f0" stroke="#efe8d7" stroke-width="1"/>
<rect x="1414.5" y="480.5" width="13" height="13" rx="2" fill="#fbf7f0" stroke="#efe8d7" stroke-width="1"/>
<rect x="1288.5" y="438.5" width="13" height="13" rx="2" fill="#fbf7f0" stroke="#efe8d7" stroke-width="1"/>
<rect x="1442.5" y="438.5" width="13" height="13" rx="2" fill="#fbf7f0" stroke="#efe8d7" stroke-width="1"/>
<rect x="1302.5" y="424.5" width="13" height="13" rx="2" fill="#fbf7f0" stroke="#efe8d7" stroke-width="1"/>
<rect x="1484.5" y="424.5" width="13" height="13" rx="2" fill="#fbf7f0" stroke="#efe8d7" stroke-width="1"/>
<rect x="1414.5" y="606.5" width="13" height="13" rx="2" fill="#fbf7f0" stroke="#efe8d7" stroke-width="1"/>
<rect x="1400.5" y="326.5" width="13" height="13" rx="2" fill="#fbf7f0" stroke="#efe8d7" stroke-width="1"/>
<rect x="1470.5" y="438.5" width="13" height="13" rx="2" fill="#fbf7f0" stroke="#efe8d7" stroke-width="1"/>
<rect x="1526.5" y="438.5" width="13" height="13" rx="2" fill="#fbf7f0" stroke="#efe8d7" stroke-width="1"/>
<rect x="1540.5" y="424.5" width="13" height="13" rx="2" fill="#fbf7f0" stroke="#efe8d7" stroke-width="1"/>
<rect x="1414.5" y="382.5" width="13" height="13" rx="2" fill="#fbf7f0" stroke="#efe8d7" stroke-width="1"/>
<rect x="1414.5" y="508.5" width="13" height="13" rx="2" fill="#fbf7f0" stroke="#efe8d7" stroke-width="1"/>
<rect x="1316.5" y="424.5" width="13" height="13" rx="2" fill="#fbf7f0" stroke="#efe8d7" stroke-width="1"/>
<rect x="1400.5" y="522.5" width="13" height="13" rx="2" fill="#fbf7f0" stroke="#efe8d7" stroke-width="1"/>
<rect x="1498.5" y="424.5" width="13" height="13" rx="2" fill="#fbf7f0" stroke="#efe8d7" stroke-width="1"/>
<rect x="1344.5" y="424.5" width="13" height="13" rx="2" fill="#fbf7f0" stroke="#efe8d7" stroke-width="1"/>
<rect x="1414.5" y="284.5" width="13" height="13" rx="2" fill="#fbf7f0" stroke="#efe8d7" stroke-width="1"/>
<rect x="1554.5" y="424.5" width="13" height="13" rx="2" fill="#fbf7f0" stroke="#efe8d7" stroke-width="1"/>
<rect x="1414.5" y="410.5" width="13" height="13" rx="2" fill="#fbf7f0" stroke="#efe8d7" stroke-width="1"/>
<rect x="1414.5" y="536.5" width="13" height="13" rx="2" fill="#fbf7f0" stroke="#efe8d7" stroke-width="1"/>
<rect x="1386.5" y="438.5" width="13" height="13" rx="2" fill="#fbf7f0" stroke="#efe8d7" stroke-width="1"/>
<rect x="1428.5" y="424.5" width="13" height="13" rx="2" fill="#fbf7f0" stroke="#efe8d7" stroke-width="1"/>
<rect x="1246.5" y="424.5" width="13" height="13" rx="2" fill="#fbf7f0" stroke="#efe8d7" stroke-width="1"/>
<rect x="1400.5" y="424.5" width="13" height="13" rx="2" fill="#fbf7f0" stroke="#efe8d7" stroke-width="1"/>
<rect x="1582.5" y="424.5" width="13" height="13" rx="2" fill="#fbf7f0" stroke="#efe8d7" stroke-width="1"/>
<rect x="1400.5" y="550.5" width="13" height="13" rx="2" fill="#fbf7f0" stroke="#efe8d7" stroke-width="1"/>
<rect x="1414.5" y="312.5" width="13" height="13" rx="2" fill="#fbf7f0" stroke="#efe8d7" stroke-width="1"/>
<rect x="1414.5" y="438.5" width="13" height="13" rx="2" fill="#fbf7f0" stroke="#efe8d7" stroke-width="1"/>
<rect x="1568.5" y="438.5" width="13" height="13" rx="2" fill="#fbf7f0" stroke="#efe8d7" stroke-width="1"/>
<rect x="1414.5" y="564.5" width="13" height="13" rx="2" fill="#fbf7f0" stroke="#efe8d7" stroke-width="1"/>
<rect x="1260.5" y="424.5" width="13" height="13" rx="2" fill="#fbf7f0" stroke="#efe8d7" stroke-width="1"/>
<rect x="1400.5" y="452.5" width="13" height="13" rx="2" fill="#fbf7f0" stroke="#efe8d7" stroke-width="1"/>
<rect x="1400.5" y="578.5" width="13" height="13" rx="2" fill="#fbf7f0" stroke="#efe8d7" stroke-width="1"/>
<rect x="1414.5" y="340.5" width="13" height="13" rx="2" fill="#fbf7f0" stroke="#efe8d7" stroke-width="1"/>
<rect x="1414.5" y="466.5" width="13" height="13" rx="2" fill="#fbf7f0" stroke="#efe8d7" stroke-width="1"/>
<rect x="1288.5" y="424.5" width="13" height="13" rx="2" fill="#fbf7f0" stroke="#efe8d7" stroke-width="1"/>
<rect x="1442.5" y="424.5" width="13" height="13" rx="2" fill="#fbf7f0" stroke="#efe8d7" stroke-width="1"/>
<rect x="1414.5" y="592.5" width="13" height="13" rx="2" fill="#fbf7f0" stroke="#efe8d7" stroke-width="1"/>
<rect x="1400.5" y="354.5" width="13" height="13" rx="2" fill="#fbf7f0" stroke="#efe8d7" stroke-width="1"/>
<rect x="1400.5" y="480.5" width="13" height="13" rx="2" fill="#fbf7f0" stroke="#efe8d7" stroke-width="1"/>
<rect x="1274.5" y="438.5" width="13" height="13" rx="2" fill="#fbf7f0" stroke="#efe8d7" stroke-width="1"/>
<rect x="1400.5" y="606.5" width="13" height="13" rx="2" fill="#fbf7f0" stroke="#efe8d7" stroke-width="1"/>
<rect x="1330.5" y="438.5" width="13" height="13" rx="2" fill="#fbf7f0" stroke="#efe8d7" stroke-width="1"/>
<rect x="1526.5" y="424.5" width="13" height="13" rx="2" fill="#fbf7f0" stroke="#efe8d7" stroke-width="1"/>
<rect x="1414.5" y="368.5" width="13" height="13" rx="2" fill="#fbf7f0" stroke="#efe8d7" stroke-width="1"/>
<rect x="1414.5" y="494.5" width="13" height="13" rx="2" fill="#fbf7f0" stroke="#efe8d7" stroke-width="1"/>
<rect x="1302.5" y="438.5" width="13" height="13" rx="2" fill="#fbf7f0" stroke="#efe8d7" stroke-width="1"/>
<rect x="1358.5" y="438.5" width="13" height="13" rx="2" fill="#fbf7f0" stroke="#efe8d7" stroke-width="1"/>
<rect x="1512.5" y="438.5" width="13" height="13" rx="2" fill="#fbf7f0" stroke="#efe8d7" stroke-width="1"/>
<rect x="1372.5" y="424.5" width="13" height="13" rx="2" fill="#fbf7f0" stroke="#efe8d7" stroke-width="1"/>
<rect x="1400.5" y="382.5" width="13" height="13" rx="2" fill="#fbf7f0" stroke="#efe8d7" stroke-width="1"/>
<rect x="1400.5" y="508.5" width="13" height="13" rx="2" fill="#fbf7f0" stroke="#efe8d7" stroke-width="1"/>
<rect x="1414.5" y="270.5" width="13" height="13" rx="2" fill="#fbf7f0" stroke="#efe8d7" stroke-width="1"/>
<rect x="1540.5" y="438.5" width="13" height="13" rx="2" fill="#fbf7f0" stroke="#efe8d7" stroke-width="1"/>
<rect x="1414.5" y="396.5" width="13" height="13" rx="2" fill="#fbf7f0" stroke="#efe8d7" stroke-width="1"/>
<rect x="1400.5" y="284.5" width="13" height="13" rx="2" fill="#fbf7f0" stroke="#efe8d7" stroke-width="1"/>
<rect x="1386.5" y="424.5" width="13" height="13" rx="2" fill="#fbf7f0" stroke="#efe8d7" stroke-width="1"/>
<rect x="1400.5" y="410.5" width="13" height="13" rx="2" fill="#fbf7f0" stroke="#efe8d7" stroke-width="1"/>
<rect x="1400.5" y="536.5" width="13" height="13" rx="2" fill="#fbf7f0" stroke="#efe8d7" stroke-width="1"/>
<rect x="1414.5" y="298.5" width="13" height="13" rx="2" fill="#fbf7f0" stroke="#efe8d7" stroke-width="1"/>
<rect x="1414.5" y="424.5" width="13" height="13" rx="2" fill="#fbf7f0" stroke="#efe8d7" stroke-width="1"/>
<rect x="1568.5" y="424.5" width="13" height="13" rx="2" fill="#fbf7f0" stroke="#efe8d7" stroke-width="1"/>
<rect x="1400.5" y="312.5" width="13" height="13" rx="2" fill="#fbf7f0" stroke="#efe8d7" stroke-width="1"/>
<rect x="1246.5" y="438.5" width="13" height="13" rx="2" fill="#fbf7f0" stroke="#efe8d7" stroke-width="1"/>
<rect x="1400.5" y="438.5" width="13" height="13" rx="2" fill="#fbf7f0" stroke="#efe8d7" stroke-width="1"/>
<rect x="1400.5" y="564.5" width="13" height="13" rx="2" fill="#fbf7f0" stroke="#efe8d7" stroke-width="1"/>
<rect x="1456.5" y="438.5" width="13" height="13" rx="2" fill="#fbf7f0" stroke="#efe8d7" stroke-width="1"/>
<rect x="1470.5" y="424.5" width="13" height="13" rx="2" fill="#fbf7f0" stroke="#efe8d7" stroke-width="1"/>
<rect x="1401" y="439" width="12" height="12" rx="2" fill="#223045"/>
<rect x="1401" y="453" width="12" height="12" rx="2" fill="#223045"/>
<rect x="1401" y="467" width="12" height="12" rx="2" fill="#223045"/>
<rect x="1401" y="481" width="12" height="12" rx="2" fill="#223045"/>
<rect x="1401" y="495" width="12" height="12" rx="2" fill="#223045"/>
<rect x="1401" y="509" width="12" height="12" rx="2" fill="#223045"/>
<rect x="1401" y="523" width="12" height="12" rx="2" fill="#223045"/>
<rect x="1401" y="537" width="12" height="12" rx="2" fill="#223045"/>
<rect x="1401" y="551" width="12" height="12" rx="2" fill="#223045"/>
<rect x="1401" y="565" width="12" height="12" rx="2" fill="#223045"/>
<rect x="1401" y="579" width="12" height="12" rx="2" fill="#223045"/>
<rect x="1401" y="593" width="12" height="12" rx="2" fill="#223045"/>
<rect x="1401" y="607" width="12" height="12" rx="2" fill="#223045"/>
<rect x="1415" y="439" width="12" height="12" rx="2" fill="#223045"/>
<rect x="1415" y="453" width="12" height="12" rx="2" fill="#223045"/>
<rect x="1415" y="467" width="12" height="12" rx="2" fill="#223045"/>
<rect x="1415" y="481" width="12" height="12" rx="2" fill="#223045"/>
<rect x="1415" y="495" width="12" height="12" rx="2" fill="#223045"/>
<rect x="1415" y="509" width="12" height="12" rx="2" fill="#223045"/>
<rect x="1415" y="523" width="12" height="12" rx="2" fill="#223045"/>
<rect x="1415" y="537" width="12" height="12" rx="2" fill="#223045"/>
<rect x="1415" y="551" width="12" height="12" rx="2" fill="#223045"/>
<rect x="1415" y="565" width="12" height="12" rx="2" fill="#223045"/>
<rect x="1415" y="579" width="12" height="12" rx="2" fill="#223045"/>
<rect x="1415" y="593" width="12" height="12" rx="2" fill="#223045"/>
<rect x="1415" y="607" width="12" height="12" rx="2" fill="#223045"/>
<rect x="1373" y="383" width="12" height="12" rx="2" fill="#223045"/>
<rect x="1387" y="383" width="12" height="12" rx="2" fill="#223045"/>
<rect x="1387" y="397" width="12" height="12" rx="2" fill="#223045"/>
<rect x="1387" y="411" width="12" height="12" rx="2" fill="#223045"/>
<rect x="1401" y="411" width="12" height="12" rx="2" fill="#223045"/>
<rect x="1401" y="425" width="12" height="12" rx="2" fill="#223045"/>
<rect x="1358" y="396" width="14" height="14" rx="3" fill="#1d1d1d" fill-opacity="1" stroke="#ffffff" stroke-width="2"/><text x="1365.0" y="407.0" text-anchor="middle" font-family="Helvetica, Arial, sans-serif" font-size="10" font-weight="700" fill="#ffffff">F</text>
<rect x="1358" y="382" width="14" height="14" rx="3" fill="#2d8f5a" fill-opacity="1" stroke="#ffffff" stroke-width="2"/><text x="1365.0" y="393.0" text-anchor="middle" font-family="Helvetica, Arial, sans-serif" font-size="10" font-weight="700" fill="#ffffff">G</text>
<rect x="1443" y="383" width="12" height="12" rx="2" fill="#223045"/>
<rect x="1429" y="383" width="12" height="12" rx="2" fill="#223045"/>
<rect x="1429" y="397" width="12" height="12" rx="2" fill="#223045"/>
<rect x="1429" y="411" width="12" height="12" rx="2" fill="#223045"/>
<rect x="1415" y="411" width="12" height="12" rx="2" fill="#223045"/>
<rect x="1415" y="425" width="12" height="12" rx="2" fill="#223045"/>
<rect x="1456" y="396" width="14" height="14" rx="3" fill="#1d1d1d" fill-opacity="1" stroke="#ffffff" stroke-width="2"/><text x="1463.0" y="407.0" text-anchor="middle" font-family="Helvetica, Arial, sans-serif" font-size="10" font-weight="700" fill="#ffffff">F</text>
<rect x="1456" y="382" width="14" height="14" rx="3" fill="#2d8f5a" fill-opacity="1" stroke="#ffffff" stroke-width="2"/><text x="1463.0" y="393.0" text-anchor="middle" font-family="Helvetica, Arial, sans-serif" font-size="10" font-weight="700" fill="#ffffff">G</text>
<rect x="1373" y="481" width="12" height="12" rx="2" fill="#223045"/>
<rect x="1387" y="481" width="12" height="12" rx="2" fill="#223045"/>
<rect x="1387" y="467" width="12" height="12" rx="2" fill="#223045"/>
<rect x="1387" y="453" width="12" height="12" rx="2" fill="#223045"/>
<rect x="1401" y="453" width="12" height="12" rx="2" fill="#223045"/>
<rect x="1401" y="439" width="12" height="12" rx="2" fill="#223045"/>
<rect x="1358" y="466" width="14" height="14" rx="3" fill="#1d1d1d" fill-opacity="1" stroke="#ffffff" stroke-width="2"/><text x="1365.0" y="477.0" text-anchor="middle" font-family="Helvetica, Arial, sans-serif" font-size="10" font-weight="700" fill="#ffffff">F</text>
<rect x="1358" y="480" width="14" height="14" rx="3" fill="#2d8f5a" fill-opacity="1" stroke="#ffffff" stroke-width="2"/><text x="1365.0" y="491.0" text-anchor="middle" font-family="Helvetica, Arial, sans-serif" font-size="10" font-weight="700" fill="#ffffff">G</text>
<rect x="1443" y="481" width="12" height="12" rx="2" fill="#223045"/>
<rect x="1429" y="481" width="12" height="12" rx="2" fill="#223045"/>
<rect x="1429" y="467" width="12" height="12" rx="2" fill="#223045"/>
<rect x="1429" y="453" width="12" height="12" rx="2" fill="#223045"/>
<rect x="1415" y="453" width="12" height="12" rx="2" fill="#223045"/>
<rect x="1415" y="439" width="12" height="12" rx="2" fill="#223045"/>
<rect x="1456" y="466" width="14" height="14" rx="3" fill="#1d1d1d" fill-opacity="1" stroke="#ffffff" stroke-width="2"/><text x="1463.0" y="477.0" text-anchor="middle" font-family="Helvetica, Arial, sans-serif" font-size="10" font-weight="700" fill="#ffffff">F</text>
<rect x="1456" y="480" width="14" height="14" rx="3" fill="#2d8f5a" fill-opacity="1" stroke="#ffffff" stroke-width="2"/><text x="1463.0" y="491.0" text-anchor="middle" font-family="Helvetica, Arial, sans-serif" font-size="10" font-weight="700" fill="#ffffff">G</text>
<rect x="1471" y="278" width="110" height="28" rx="14" fill="#c74d4d"/>
<text x="1526" y="297" text-anchor="middle" font-family="Helvetica, Arial, sans-serif" font-size="14" font-weight="700" fill="#fff">Best for cross-field</text>
<text x="1421.0" y="654" text-anchor="middle" font-family="Helvetica, Arial, sans-serif" font-size="14" fill="#667685">Most symmetric match for the wiki cross layout: 4 farmers, 4 filter heads, shared center trunk.</text>
<rect x="70" y="760" width="1650" height="400" rx="28" fill="#fffdfa" stroke="#e2dacd" stroke-width="2"/>
<text x="100" y="810" font-family="Helvetica, Arial, sans-serif" font-size="28" font-weight="700" fill="#23313f">Recommended Placement Rules</text>
<text x="100" y="860" font-family="Helvetica, Arial, sans-serif" font-size="22" fill="#23313f">1. Bury the Water Tank below the field center. The sprinkler code only checks x/y range, so height does not break coverage.</text>
<text x="100" y="916" font-family="Helvetica, Arial, sans-serif" font-size="22" fill="#23313f">2. A farmer should touch a black filter crate on one side and a conveyor/output side on another side. Do not trap it fully off-network.</text>
<text x="100" y="972" font-family="Helvetica, Arial, sans-serif" font-size="22" fill="#23313f">3. For cross fields, place each farmer 1 tile inward from the inner quadrant corner. This wastes fewer action tiles than planting directly on the path edge.</text>
<text x="100" y="1028" font-family="Helvetica, Arial, sans-serif" font-size="22" fill="#23313f">4. If you want the cleanest visual throughput, merge the four farmer outputs into one southbound trunk after the center path, not before it.</text>
<text x="100" y="1084" font-family="Helvetica, Arial, sans-serif" font-size="22" fill="#23313f">5. Current farmer geometry: 21×21 work area, 25×25 pickup area. That means irrigation can be larger than active till/plant coverage without losing harvest pickup.</text>
</svg>